<svg xmlns="http://www.w3.org/2000/svg" width="400" height="273" xmlns:xlink="http://www.w3.org/1999/xlink" version="1"><defs><linearGradient id="b"><stop offset="0" stop-color="#7e450d"/><stop offset="1" stop-color="#a95c13"/></linearGradient><linearGradient id="a"><stop offset="0" stop-color="#56b142"/><stop offset="1" stop-color="#21922a"/></linearGradient><radialGradient id="e" cx="95.625" cy="78.476" r="91.4" xlink:href="#a" fx="95.625" fy="78.476" gradientTransform="matrix(-.913 -.002 -.001 .554 182.983 35.165)" gradientUnits="userSpaceOnUse"/><linearGradient id="f" x1="93.854" x2="93.854" y1="214.768" y2="140.539" xlink:href="#b" gradientUnits="userSpaceOnUse" gradientTransform="matrix(-1 0 0 1 191.25 0)"/><radialGradient cx="95.625" cy="78.476" r="91.4" xlink:href="#a" gradientUnits="userSpaceOnUse" gradientTransform="matrix(.352 -.149 .005 -.213 376.334 218.438)" fx="95.625" fy="78.476"/><linearGradient x1="93.854" x2="94.238" y1="214.768" y2="94.404" xlink:href="#b" gradientUnits="userSpaceOnUse" gradientTransform="matrix(.352 -.149 .008 -.363 376.08 230.2)"/><radialGradient id="c" cx="95.625" cy="78.476" r="91.4" xlink:href="#a" gradientUnits="userSpaceOnUse" gradientTransform="matrix(.292 -.196 -.004 -.212 320.222 248.802)" fx="95.625" fy="78.476"/><linearGradient id="d" x1="93.854" x2="93.854" y1="214.768" y2="140.539" xlink:href="#b" gradientUnits="userSpaceOnUse" gradientTransform="matrix(.32 -.215 -.008 -.383 317.842 264.033)"/></defs><path fill="none" stroke="#000" d="M307.35 204.43l73.42 19.67"/><path fill="url(#c)" fill-rule="evenodd" d="M343.23 194.2c-.17.1-1.34 1.47-1.86 1.1-.5-.35-.77-.95-1.46-.5-.68.47-.96 1.04-1.27 1.7-.3.66-.65 1.24-1.2 1.6-.53.37-.93.4-1.22.6-.28.2-.65.95-.8 1.24-.17.28-.56.8-.9 1.03-.36.24-1.23.25-1.9.7-.68.46-1.26 1.24-1.43 2-.16.74.17.66-.35 1.62-.52.94-2.4 2.34-3.2 3.07-.8.73-1.63.84-2.58 1.98-.94 1.14-2.42 5.5-3.16 6.26-.75.76-1.16 1.1-1.7 1-.57-.07-.65-.02-1.18 1-.53 1-.52 1.35-.48 2.26.04.9.03 1.5.64 1.48.6 0 .8.24.82.9.02.68-1.3 3.06-1.27 4.96.05 1.9 1.37 1.08 1.43 2.68.07 1.6-1.25 2.7-1.2 4.47.08 1.77 4.3.62 4.36 4.03.06 3.4-.92 2.07-.87 4.92.03 1.56.38 1 1.5 1.25 1.1.25 1.9-.07 2.78-.66.9-.6 1.62-1.52 2.33-2 .7-.47 1.54-.4 2.15.02.6.42.33 1.42 1.26 1.58.92.16 2.54-.96 3.5-1.6 1-.66 2.44-1.2 3.93-1.07 1.5.13 2.54-.07 3.54-.74 1-.68.95-1 1.37-2.27.42-1.28 1.5-3.3 2.6-4.03 1.1-.73 2.26-.84 3.1-.55.84.3.94.73 1.5.23.55-.5.63-2.8 1.44-3.34.82-.54 2.22-1.23 2.53-.8.3.44.02 1.15.3.97.3-.18.77-1.28 1.22-1.6.44-.3.98-.22 1.66-.67.7-.46 1.15-.92 1.55-1.86.4-.94.5-1.52 3.23-3.34 2.73-1.83 2.66-1.5 3.37-1.12.7.4.68.4.96.22.3-.2.37-1.2.78-1.78.4-.6 2.45-2.1 2.55-3 .1-.9-1.42-3.35-1.43-3.86 0-.5.05-1.16.75-1.64.7-.47 1.38-.47 1.87-.54.5-.06 2.44-1.22 2.6-1.58.16-.35 0-2.16-.1-2.4-.07-.26-1.8-1.68-2.16-1.87-.37-.18-1.5-.44-1-.73.5-.28 2.58-.9 3.3-2.4.46-.97-.42-.47-.44-.7-.04-.65.7-1 1.1-1.42.4-.4.74-1.28.77-2 .02-.72.2-5.53.2-6.52-.03-1-.52-2.25-1.13-2.78-.6-.54-2.02-1.35-2.04-3.52 0-2.16.24-3-.05-3.35-.3-.35-.72-.1-1 .14-.27.22-.84.98-1.37 1.35-.52.37-1.9 1.34-2.03 1.27-.13-.07-.2-1.53-.2-2.33s.1-1.75-.36-1.93c-.44-.18-1.43.2-3.8 1.8-2.37 1.58-3.44 3.4-4.18 3.9-.73.5-1.57 1-2.27.88-.7-.14-1.3-1.56-1.98-2.1-.66-.54-1.07-2.07-2.05-1.42-.98.66-3.6 2.26-3.92 2.7-.33.45-7.4 7.1-7.37 7.1z"/><path fill="url(#d)" fill-rule="evenodd" d="M329.75 217.55s3-5.3 3.26-5.6c.26-.28.84-.84 1.1-1.36.23-.53.67-2.93 2.4-4.1 1.75-1.16 5.38-5.07 5.8-5.63.4-.55 1.36-3.08 1.65-3.28.3-.2 1.35-.87 1.64-.68.27.2.12 2.6.03 3.58-.1.97.32.74.75 1.1.42.37.78 1.17.8 1.8 0 .6-.84 4.9-.84 4.9s1.06-2.87 1.15-3.6c.08-.75.33-3 .16-3.42-.18-.4-.52-.74-.55-1.9 0-1.17.28-1.74.6-2.36.3-.62.95-3 1.76-3.53.82-.54 2.37-1.07 2.98-.9.62.16 1.9.5 2.82.7.92.2 1.85-.76 2.52-.58.68.17 1.25.02 1.28 1.5.03 1.5-.07 1.6.6 2.04.7.45 1.62.13 1.62.13s-.56-.46-1.03-.63c-.47-.16-.4-2.8-.76-3.24-.36-.45-1.5-2.1-2.06-2.15-.55-.06-1.47.28-1.86-.02-.38-.3-.62-.86-1.33-1.1-.7-.23-2.48-.7-2.48-.7s.18-2.83.1-6.8c-.08-3.98-.44-6.77-.44-6.77s-.17-3.6.35-6.15c.52-2.54-.1-5.27 1.64-7.9 1.74-2.63 5.6-6.1 6.56-7.13.87-.9 2.83-3.23 2.83-3.23s-4.47 3.9-5.63 5c-1.16 1.07-3.65 3.04-4.63 4.8-.98 1.77-1.52 2.7-1.82 2.9-.3.18-.22-1.2.47-2.62.68-1.42 1.62-3.18 1.4-3-.2.2-3.85 6.63-4.1 6.96-.28.33-1 1.1-1.8 1.65-.8.53-1.55.5-2.02.3-.46-.18-.8-1.13-1.03-1.27-.22-.14-2.83.1-2.83.1s2.46 1.87 2.32 2.07c-.14.2-6.6 3-7.47 3.27-.92.28-4.66 2.32-4.66 2.32s2.76-.57 3.6-.7c.85-.15 2.9-1.42 3.8-1.42.9 0 2.23-.44 2.53-.1.3.32.2 2.42.44 4.05.25 1.64.45 4.6.73 5.8.27 1.16.22 7.2.12 8.47-.1 1.28.17 5.9-.1 6.66-.3.76-1.64 3.7-2.08 4.4-.43.68-1.36 2.1-1.77 2.38-.4.27-1.3 1.7-1.54 2.07-.25.37-2 2.12-2.23 2.66-.24.54-2.48 5.7-2.85 6.35-.36.65-1.92 3.9-1.9 3.85z"/><path fill="none" stroke="#f00" d="M97.15 214.08L344.5 166.2"/><path fill="url(#e)" fill-rule="evenodd" d="M108.78 136.2c.52 0 4.22-1.5 5.78.32 1.56 1.82 2.34 3.83 4.48 3.83 2.15 0 3.06-.97 4.03-2.14.98-1.16 2.08-2.07 3.77-2.07 1.7 0 2.93.58 3.84.58.9 0 2.08-1.3 2.6-1.74.52-.46 1.72-1.1 2.82-1.1 1.1 0 3.77 1.46 5.9 1.46 2.1 0 3.94-1 4.5-2.67.54-1.65-.47-2.02 1.18-3.58 1.66-1.57 7.56-1.9 10.03-2.43 2.48-.52 5.08.65 8.07-.65 3-1.3 7.8-10.02 10.14-10.67 2.35-.65 3.65-.78 5.34.4 1.7 1.16 1.95 1.16 3.64-.53 1.7-1.7 1.7-2.6 1.63-5-.06-2.4 0-3.9-1.88-4.94-1.88-1.04-2.47-2.02-2.47-3.77s4.23-5.6 4.23-10.58c0-4.96-4.14-5.14-4.23-9.37-.1-4.23 4.05-4.78 3.95-9.47-.1-4.7-13.14-9-13.14-17.92 0-8.92 2.94-3.77 2.94-11.22 0-4.06-1.1-3.2-4.5-5.8-3.4-2.56-5.9-3.1-8.64-3.1-2.76 0-5.06 1.1-7.26 1.1s-4.78-1.66-6.62-3.78c-1.84-2.1-.92-4.22-3.77-6.25-2.84-2-7.9-1.92-10.93-1.92-3.03 0-7.53-1.1-12.13-4.04-4.6-2.94-7.8-4.23-10.94-4.23-3.12 0-2.94.93-4.32 3.5-1.38 2.58-4.87 5.9-8.27 5.9-3.4 0-6.97-1.76-9.55-3.97-2.57-2.2-2.85-3.5-4.6-3.17-1.74.33-2.1 6.12-4.63 6.12s-6.9-.65-7.82-2.3c-.92-1.66 0-3-.92-3.04-.92-.04-2.4 2.02-3.8 2.05-1.4.02-3.04-1.14-5.16-1.14-2.1 0-3.58.37-4.87 2.12C55.85 22.72 55.5 24 47 24c-8.5 0-8.28-.72-10.44-2.93-2.16-2.2-2.07-2.2-2.94-2.2-.87 0-1.2 2.43-2.48 3.26-1.3.82-7.67 1.2-8.04 3.3-.37 2.12 4.18 11.13 4.18 12.46 0 1.32-.23 2.88-2.44 2.88-2.2 0-4.27-1.14-5.8-1.83-1.5-.7-7.57-1.06-8.07-.42-.5.65-.1 5.6.13 6.4.23.77 5.47 7.44 6.57 8.54 1.1 1.1 4.55 3.72 3 3.58-1.57-.13-7.98-2.16-10.3.5-1.47 1.7 1.3 1.95 1.32 2.54.1 1.78-2.23 1.42-3.47 1.78-1.23.35-2.37 2-2.5 3.83-.13 1.83-1 13.9-1 16.5 0 2.58 1.4 6.65 3.25 9.1 1.84 2.43 6.16 6.98 6.06 12.58-.1 5.6-.9 7.3-.04 8.73.87 1.44 2.2 1.48 3.08 1.4.87-.1 2.66-1.06 4.32-1.1 1.65-.06 5.93-.2 6.34.22.4.4.5 4.27.46 6.34-.05 2.07-.37 4.37 1 5.6 1.4 1.25 4.47 1.98 11.87 1.98 7.4 0 10.8-2.85 13.1-2.85 2.3 0 4.9.1 7.03 1.66 2.15 1.56 3.97 6.3 5.98 8.84 2.02 2.53 3.2 7.2 6.24 7.2 3.06 0 11.18.4 12.22-.18 1.04-.6 23.26-5.48 23.14-5.53z"/><path fill="url(#f)" fill-rule="evenodd" d="M151.73 99.3s-9.6 8.44-10.4 8.76c-.77.33-2.6.74-3.4 1.66-.77.92-2.3 6.34-7.7 6.34-5.43 0-16.84 3.82-18.14 4.54-1.3.7-4.43 5.58-5.34 5.58-.9 0-4.2-.1-5.07-1.1-.9-1-.27-6.95.1-9.3.35-2.33-.95-2.46-2.25-4.15-1.3-1.7-2.34-4.36-2.34-5.98 0-1.63 2.87-11.25 2.87-11.25s-3.45 5.6-3.77 7.35c-.33 1.75-1.24 7.15-.72 8.5.52 1.38 1.56 2.8 1.56 5.86 0 3.07-.94 4-1.9 5.08-1 1.07-3.17 6.08-5.7 6.04-2.54-.03-7.35-1.36-9.23-2.86-1.87-1.5-5.84-4.6-8.63-6.7-2.8-2.07-5.72-1.22-7.8-2.85-2.08-1.6-3.84-2.2-3.84-6.1 0-3.9.33-3.96-1.75-6.3s-4.94-3.12-4.94-3.12 1.7 2.14 3.12 3.38c1.43 1.23 1.1 7.93 2.14 9.68 1.04 1.76 4.5 8 6.18 9.1 1.7 1.1 4.55 1.82 5.72 3.25 1.17 1.42 1.88 3.3 4.03 5.12 2.14 1.82 7.6 6.1 7.6 6.1s-.7 7.02-.7 17.4c0 10.4.9 18.2.9 18.2s.32 9.58-1.44 15.24c-1.76 5.65 0 13.77-5.53 17.54-5.52 3.77-17.62 6.08-20.67 7.02-2.73.85-8.9 3.45-8.9 3.45s14.04-2.34 17.68-3.12c3.64-.78 11.44-1.56 14.56-4.42 3.1-2.86 4.84-4.32 5.78-4.3.94.04.58 3.45-1.63 5.92-2.22 2.47-5.2 5.4-4.55 5.27.65-.13 12.28-10.4 13.12-10.8.85-.38 3.1-1.16 5.6-1.16 2.5 0 4.8 1.36 6.23 2.66 1.43 1.3 2.42 4.35 3.1 5.1.7.75 8.73 4.65 8.73 4.65s-7.47-9.1-7.02-9.36c.47-.25 20.48 3.65 23.2 4.5 2.87.88 14.5 2.08 14.5 2.08s-8.5-3.32-11.1-4.42c-2.6-1.1-8.98-1.37-11.77-2.93-2.8-1.56-6.9-2.73-7.8-4.1-.9-1.36-.48-6.6-1.12-11.25-.63-4.64-1.08-12.66-1.86-16.17-.78-3.5-.26-18.96.13-22.08.4-3.12-.15-15.5.77-16.97.92-1.48 5.24-6.76 6.62-7.77 1.38-1 4.32-3.08 5.6-3.08 1.3 0 4.1-2.14 4.88-2.66.78-.52 6.24-2.02 7.02-3 .78-.97 8-10.4 9.17-11.43 1.17-1.03 6.17-6.7 6.1-6.6z"/><path fill="none" stroke="#f00" d="M340.8 239.03L107.23 17.58"/><path fill="#b1b1b1" fill-opacity=".802" fill-rule="evenodd" stroke="#000" d="M242.16 154.54l65.18-38.1v88.45l-65.24 37.45.06-87.8z"/><path fill="#fff" fill-rule="evenodd" d="M277.58 176.6l-1.53 1.08-.04 2.88 1.58 1.5 1.96-1.96-.22-2.55-1.74-.95z"/><path fill="none" stroke="#000" stroke-dashoffset="13.5" d="M277.6 182.06a-1.88 2.86 0 1 1 0-5.72"/><path fill="none" stroke="#000" d="M242.16 242.46l72.86 19.52v-88.34l-72.87-19.1"/><path fill="none" stroke="#000" d="M315 173.86l65.93-38.06v88.13l-65.8 38"/><path fill="none" stroke="#000" d="M307.7 116.44l72.96 19.54"/><path fill="none" stroke="#f00" d="M276.1 177.7l30.3 28.73"/><path fill="none" stroke="#f00" d="M275.93 179.47l32.46-6.28"/><path fill="none" stroke="#000" stroke-dashoffset="13.5" d="M277.65 182.06a1.88 2.86 0 1 1 0-5.72"/></svg>